<svg width="100" height="100" viewBox="0 0 100 100" fill="none" xmlns="http://www.w3.org/2000/svg">
<path d="M81.6146 20.8667C85.1291 20.8667 86.0541 23.525 85.0146 29.7667C83.825 36.9042 80.3979 60.5355 77.6646 75.2459C76.6187 80.875 74.7333 83.3021 71.9896 83.3021C70.4812 83.3021 68.7146 82.5688 66.6854 81.2292C63.9354 79.4125 50.0521 70.2313 47.0375 68.075C44.2875 66.1104 40.4937 63.7459 45.2521 59.0917C46.9458 57.4334 58.0437 46.8354 66.6896 38.5875C67.6125 37.7063 66.8396 36.3625 65.8146 36.3625C65.5812 36.3625 65.3333 36.4334 65.0916 36.5938C53.4375 44.3229 37.2771 55.05 35.2208 56.4479C33.1646 57.8438 31.1604 58.7396 28.4896 58.7396C27.125 58.7396 25.5854 58.5063 23.775 57.9855C19.7271 56.823 15.775 55.4375 14.2354 54.9084C8.30832 52.875 9.71457 50.2396 15.4708 47.7063C38.55 37.5542 68.4146 25.175 72.5375 23.4625C76.5542 21.7938 79.5375 20.8667 81.6146 20.8667ZM81.6146 14.6167C78.7646 14.6167 75.3333 15.5354 70.1437 17.6875L69.5208 17.9459C47.3646 27.1459 27.275 35.6834 12.9542 41.9834C10.7167 42.9688 3.9104 45.9625 4.17498 52.225C4.28748 54.9271 5.77498 58.6104 12.2083 60.8167L12.6833 60.9792C14.4792 61.598 18.2187 62.8875 22.0521 63.9896C24.3854 64.6605 26.4937 64.9855 28.4916 64.9855C31.9583 64.9855 34.6437 63.9959 36.7437 62.8438C36.7333 63.1938 36.7416 63.5459 36.7687 63.9C37.1479 68.7167 40.8729 71.3584 43.0979 72.9375L43.4083 73.1584C46.6937 75.5084 61.5625 85.3313 63.2458 86.4417C66.4146 88.5334 69.275 89.548 71.9937 89.548C76.2687 89.548 81.7916 87.2646 83.8125 76.3855C85.7312 66.0667 87.9479 51.6521 89.5667 41.1271C90.2562 36.6354 90.8229 32.9521 91.1833 30.7917C91.9104 26.4292 92.2437 21.4875 89.2083 17.9063C87.9333 16.4063 85.5833 14.6167 81.6146 14.6167Z" fill="black"/>
</svg>
